<svg width="85" height="30" viewBox="0 0 85 30" fill="none" xmlns="http://www.w3.org/2000/svg">
<g clip-path="url(#clip0_11779_7)">
<path d="M38.4817 14.1573C41.1681 13.2706 41.6556 11.0292 41.6491 9.20268C41.6439 6.41422 39.6635 4.0018 33.8007 4.0018L22.8585 4V24.9568H33.7726C39.6701 24.9568 41.8402 21.9471 41.8402 18.9324C41.8402 15.2819 38.4817 14.1573 38.4817 14.1573ZM28.0514 8.55929H35.4184L35.4451 8.56468C36.2767 8.71111 36.8821 9.41398 36.8821 10.2386C36.8821 11.0823 36.2334 11.8766 35.3762 11.9929L28.0564 12.0039L28.0514 8.55929ZM35.064 20.0728H28.0514V16.5641H35.2358L35.2527 16.5659C36.1465 16.6684 36.8235 17.4069 36.8235 18.2846C36.8235 19.241 36.0222 20.0581 35.064 20.0728Z" fill="#8491A0"/>
<path d="M66.5935 4.00269H85.0846L85.0744 8.57668H71.7312L71.744 11.9546H83.7733V16.5521H71.744V20.2073H85.089L85.0864 25H66.5935V4.00269Z" fill="#8491A0"/>
<path d="M56.0223 4.03027H44.8402V24.9938H49.9751V16.5121C49.9751 16.5121 55.6292 16.5057 55.6302 16.5057C57.2497 16.5304 58.5092 17.8492 58.5092 19.4754V24.9755L63.5354 24.9737L63.5253 18.2077C63.5253 15.0735 60.4794 14.1474 60.4794 14.1474C60.4794 14.1474 63.5935 13.2211 63.5935 9.51567C63.5935 4.98204 59.674 4.03027 56.0223 4.03027ZM58.8251 10.5343C58.7329 11.2234 58.0397 11.9711 57.1742 11.9711L49.9575 11.9739V8.61702H57.1778C58.0397 8.61702 58.7156 9.24847 58.8251 10.0769V10.5343Z" fill="#8491A0"/>
<path d="M19.6896 19.928C19.6157 19.9299 12.6706 20.0634 10.273 19.8309C6.41091 19.4549 5.0433 16.6115 5.0433 14.2906C5.0433 11.3969 7.0278 9.26738 10.1022 8.86749C11.5647 8.6771 19.5627 8.76682 19.6472 8.76764L19.8154 8.7696L19.8324 4.00244L19.6625 4.00342L10.6104 4.01993C9.60272 4.08121 7.93192 4.18188 6.22101 4.8774C4.57751 5.62586 3.14709 6.77553 2.07904 8.20596C0.719648 10.027 0 12.1877 0 14.4543C0 15.1673 0.0567228 15.8748 0.172636 16.5538C0.824052 19.7322 2.92019 22.3623 5.92588 23.7772C6.94082 24.221 8.50606 24.7536 11.6628 24.9293C11.6693 24.9293 13.3634 24.9649 13.3634 24.9649L19.674 24.9713H19.8407L19.8585 19.926L19.6896 19.928Z" fill="#8491A0"/>
</g>
<defs>
<clipPath id="clip0_11779_7">
<rect width="85" height="30" fill="white"/>
</clipPath>
</defs>
</svg>
